<?xml version="1.0" standalone="no"?>
<!DOCTYPE svg PUBLIC "-//W3C//DTD SVG 20010904//EN"
 "http://www.w3.org/TR/2001/REC-SVG-20010904/DTD/svg10.dtd">
<svg version="1.0" xmlns="http://www.w3.org/2000/svg"
 width="424.000000pt" height="588.000000pt" viewBox="0 0 424.000000 588.000000"
 preserveAspectRatio="xMidYMid meet">
<metadata>
Created by potrace 1.16, written by Peter Selinger 2001-2019
</metadata>
<g transform="translate(0.000000,588.000000) scale(0.100000,-0.100000)"
fill="#000000" stroke="none">
<path d="M1912 3620 c-155 -28 -258 -84 -377 -204 -96 -98 -159 -193 -216
-329 -24 -59 -36 -77 -48 -73 -9 2 -44 16 -78 31 -215 89 -382 33 -477 -161
-84 -172 -63 -407 46 -521 44 -46 87 -63 157 -63 77 0 121 21 184 89 l48 51
72 -20 c118 -33 204 -22 241 31 27 39 21 52 -16 33 -38 -20 -82 -10 -174 42
l-62 34 25 87 c67 240 86 303 93 303 4 0 45 -27 91 -60 l84 -59 47 -143 c27
-78 48 -153 48 -165 0 -24 -26 -43 -60 -43 -13 0 -20 -5 -18 -12 3 -8 32 -15
77 -18 l72 -5 -158 -87 c-268 -148 -429 -213 -601 -243 -165 -29 -315 -14
-440 45 -74 35 -72 34 -72 17 0 -15 131 -79 200 -98 65 -18 290 -15 378 5 158
35 345 114 582 245 119 67 331 175 373 190 21 8 27 8 27 -3 0 -8 -16 -20 -35
-26 -19 -6 -37 -15 -40 -20 -3 -5 60 -10 140 -12 106 -2 145 0 145 9 0 6 -13
14 -30 18 -32 7 -60 38 -60 67 0 20 16 28 98 49 46 11 55 11 62 -1 8 -12 10
-11 10 4 0 11 3 16 7 13 11 -12 40 -102 36 -114 -8 -23 86 -104 163 -140 94
-45 198 -56 269 -29 46 18 105 75 105 102 0 11 5 14 17 10 46 -18 114 -27 163
-21 68 7 102 20 158 57 l42 29 43 -36 c52 -45 163 -100 242 -120 114 -29 306
-17 423 27 69 26 61 33 -16 14 -216 -57 -467 -7 -601 119 -49 46 -50 48 -36
75 29 57 37 112 21 162 -20 67 -65 119 -176 203 -129 98 -161 149 -140 227 13
47 43 68 95 68 73 0 131 -56 160 -153 6 -22 18 -43 25 -45 11 -4 12 12 7 79
-4 46 -7 98 -7 114 0 17 -4 37 -9 44 -8 12 -13 11 -28 -8 l-18 -23 -53 21
c-62 25 -122 27 -161 6 -94 -48 -129 -185 -75 -293 27 -55 54 -81 157 -154 71
-51 111 -102 121 -157 6 -32 1 -29 -86 60 -112 114 -193 162 -272 162 -28 0
-65 -7 -81 -16 -63 -32 -115 -112 -115 -174 l0 -28 -148 -1 -148 0 -15 82 -15
83 44 37 c59 49 82 101 82 187 0 115 -57 189 -169 221 -81 23 -371 23 -371 1
0 -8 9 -15 20 -15 11 0 29 -9 40 -20 19 -19 20 -33 20 -348 l0 -327 -102 -45
c-56 -25 -106 -47 -110 -48 -15 -7 -108 222 -96 234 3 2 48 -16 100 -41 136
-64 134 -56 -2 13 l-115 57 -88 250 c-79 224 -86 253 -75 275 7 14 51 64 98
111 69 70 101 94 170 127 199 97 414 95 722 -4 62 -20 138 -48 168 -61 114
-51 140 -62 140 -58 0 8 -192 101 -285 138 -191 76 -438 113 -583 87z m291
-374 c50 -18 76 -42 98 -91 25 -53 24 -129 -2 -185 l-21 -45 -23 46 c-30 57
-82 104 -135 120 l-40 12 0 72 c0 39 3 75 7 78 11 11 75 7 116 -7z m-754 -247
c23 -72 41 -132 39 -133 -1 -2 -37 22 -79 53 l-76 56 30 78 c16 42 33 77 36
77 4 0 26 -59 50 -131z m687 59 c61 -54 96 -157 58 -172 -9 -3 -38 -6 -65 -6
l-49 0 0 105 c0 61 4 105 10 105 5 0 26 -15 46 -32z m-1011 -12 c43 -12 144
-52 152 -60 2 -2 -4 -23 -12 -47 -9 -24 -32 -107 -52 -184 -47 -186 -43 -179
-96 -156 -93 40 -203 51 -260 27 -34 -14 -70 -50 -80 -78 -8 -22 -8 -22 32 -2
20 10 45 14 66 11 40 -6 225 -87 225 -97 0 -15 -81 -88 -114 -104 -78 -37
-167 -6 -223 77 -40 60 -52 101 -60 197 -8 117 27 238 95 327 26 35 76 70 127
90 41 16 140 16 200 -1z m1827 -264 c44 -30 218 -206 218 -221 0 -16 -57 -59
-94 -71 -50 -16 -160 -8 -208 15 -21 11 -42 30 -49 47 -6 16 -34 48 -60 72
-45 40 -49 48 -49 89 0 34 6 53 26 76 49 58 125 56 216 -7z m-718 11 c16 -112
18 -133 8 -133 -6 0 -13 8 -15 18 -4 14 -5 13 -6 -4 -1 -17 -12 -23 -58 -34
-32 -7 -64 -15 -70 -17 -10 -4 -13 20 -13 101 l0 106 74 0 74 0 6 -37z m375
-139 c23 -5 35 -15 45 -38 18 -43 61 -91 112 -127 24 -16 44 -37 44 -46 0 -8
-17 -32 -37 -53 -51 -50 -118 -66 -198 -45 -97 26 -149 63 -186 137 -19 37
-52 149 -46 155 16 15 211 28 266 17z"/>
</g>
</svg>
